<?xml version="1.0" encoding="utf-8"?>
<!-- Generator: Adobe Illustrator 24.1.1, SVG Export Plug-In . SVG Version: 6.00 Build 0)  -->
<svg version="1.1" id="Слой_1" xmlns="http://www.w3.org/2000/svg" xmlns:xlink="http://www.w3.org/1999/xlink" x="0px" y="0px"
	 viewBox="0 0 56 56" style="enable-background:new 0 0 56 56;" xml:space="preserve">
<g>
	<g>
		<path d="M56.2,38.5c0.1-0.3,0.1-0.5,0-0.8l-4.6-16.4V6.2c0-3.5-2.6-6.4-5.8-6.4h-35C7.6-0.2,5,2.7,5,6.2v15.1L0.4,37.7
			c-0.1,0.3,0,0.6,0,0.8c-0.1,0.3-0.1,0.5-0.1,0.8v10.2v5.1c0,0.7,0.5,1.3,1.2,1.3h4.7c0.6,0,1.2-0.6,1.2-1.3v-3.8h42v3.8
			c0,0.7,0.5,1.3,1.2,1.3h4.7c0.6,0,1.2-0.6,1.2-1.3v-5.1V39.3C56.3,39,56.3,38.7,56.2,38.5z M7.3,6.2c0-2.1,1.6-3.8,3.5-3.8h35
			c1.9,0,3.5,1.7,3.5,3.8v14h-3.2l-1.1-4.7c-0.4-1.7-1.8-2.9-3.4-2.9h-7.5c-1.9,0-3.5,1.7-3.5,3.8v3.8H26v-3.8
			c0-2.1-1.6-3.8-3.5-3.8H15c-1.6,0-3,1.2-3.4,2.9l-1.1,4.7H7.3V6.2z M43.8,22.3c-0.2,0.3-0.6,0.5-0.9,0.5h-8.7
			c-0.6,0-1.2-0.6-1.2-1.3v-5.1c0-0.7,0.5-1.3,1.2-1.3h7.5c0.5,0,1,0.4,1.1,1l1.2,5.1C44.1,21.6,44,22,43.8,22.3z M23.7,16.4v5.1
			c0,0,0,0,0,0c0,0,0,0,0,0c0,0.7-0.5,1.3-1.2,1.3h-8.7c-0.4,0-0.7-0.2-0.9-0.5c-0.2-0.3-0.3-0.7-0.2-1.1l1.2-5.1
			c0.1-0.6,0.6-1,1.1-1h7.5C23.1,15.1,23.7,15.7,23.7,16.4z M7,22.8h3.5c0.1,0.4,0.3,0.7,0.5,1.1c0.7,0.9,1.7,1.5,2.8,1.5h8.7
			c1.5,0,2.8-1.1,3.3-2.5h5.1c0.5,1.5,1.8,2.5,3.3,2.5h8.7c1.1,0,2.1-0.5,2.8-1.5c0.2-0.3,0.4-0.7,0.5-1.1h3.5l3.6,12.8
			c-0.1,0-0.3,0-0.4,0h-49c-0.1,0-0.3,0-0.4,0L7,22.8z M5,53.3H2.7v-2.5H5L5,53.3L5,53.3z M54,53.3h-2.3v-2.5H54V53.3z M54,48.2H2.7
			v-8.9c0-0.7,0.5-1.3,1.2-1.3h49c0.6,0,1.2,0.6,1.2,1.3V48.2z"/>
	</g>
</g>
</svg>
