<?xml version="1.0" encoding="utf-8"?>
<!-- Generator: Adobe Illustrator 24.1.1, SVG Export Plug-In . SVG Version: 6.00 Build 0)  -->
<svg version="1.1" id="Слой_1" xmlns="http://www.w3.org/2000/svg" xmlns:xlink="http://www.w3.org/1999/xlink" x="0px" y="0px"
	 viewBox="0 0 56 56" style="enable-background:new 0 0 56 56;" xml:space="preserve">
<path d="M28.3-0.2c-15.5,0-28,12.5-28,28s12.5,28,28,28s28-12.5,28-28C56.3,12.4,43.8-0.1,28.3-0.2z M52.5,37.7l-8,1.4
	c0.9-3.3,1.4-6.8,1.5-10.2h8.4C54.3,31.8,53.7,34.8,52.5,37.7z M2.2,28.8h8.4c0.1,3.5,0.6,6.9,1.5,10.2l-8-1.4
	C3,34.8,2.3,31.8,2.2,28.8z M4.1,18l8-1.4c-0.9,3.3-1.4,6.8-1.5,10.2H2.2C2.3,23.9,3,20.9,4.1,18z M29.3,14.8c3.4,0,6.7,0.3,10,0.9
	l3.3,0.6c1,3.4,1.6,7,1.6,10.6H29.3V14.8z M39.6,13.9c-3.4-0.6-6.9-0.9-10.3-0.9V1.8c5.4,0.5,10,5.4,12.6,12.5L39.6,13.9z M27.4,13
	c-3.5,0-6.9,0.4-10.3,0.9l-2.3,0.4c2.6-7.1,7.3-12,12.6-12.5V13z M17.4,15.7c3.3-0.6,6.7-0.9,10-0.9v12.1H12.5
	c0.1-3.6,0.6-7.2,1.6-10.6L17.4,15.7z M12.5,28.8h14.9v12.1c-3.4,0-6.7-0.3-10-0.9l-3.3-0.6C13.1,35.9,12.5,32.4,12.5,28.8z
	 M17.1,41.8c3.4,0.6,6.9,0.9,10.3,0.9v11.2c-5.4-0.5-10-5.4-12.6-12.5L17.1,41.8z M29.3,42.7c3.5,0,6.9-0.4,10.3-0.9l2.3-0.4
	c-2.6,7.1-7.3,12-12.6,12.5V42.7z M39.3,39.9c-3.3,0.6-6.7,0.9-10,0.9V28.8h14.9c-0.1,3.6-0.6,7.2-1.6,10.6L39.3,39.9z M46,26.9
	c-0.1-3.5-0.6-6.9-1.5-10.2l8,1.4c1.1,2.8,1.8,5.8,1.9,8.9H46z M51.6,16L44,14.7C42.6,10.2,40,6.2,36.5,3C43.1,5.2,48.5,9.9,51.6,16
	z M20.1,3c-3.5,3.1-6.1,7.1-7.4,11.6L5.1,16C8.2,9.9,13.6,5.2,20.1,3z M5.1,39.7l7.6,1.3c1.4,4.5,3.9,8.5,7.4,11.6
	C13.6,50.5,8.2,45.8,5.1,39.7z M36.5,52.6C40,49.5,42.6,45.5,44,41l7.6-1.3C48.5,45.8,43.1,50.5,36.5,52.6z"/>
</svg>
