<?xml version="1.0" encoding="utf-8"?>
<!-- Generator: Adobe Illustrator 24.1.1, SVG Export Plug-In . SVG Version: 6.00 Build 0)  -->
<svg version="1.1" id="Слой_1" xmlns="http://www.w3.org/2000/svg" xmlns:xlink="http://www.w3.org/1999/xlink" x="0px" y="0px"
	 viewBox="0 0 56 56" style="enable-background:new 0 0 56 56;" xml:space="preserve">
<g>
	<g>
		<path d="M56.3,50.6C56.3,50.6,56.3,50.6,56.3,50.6c0-0.1,0-0.1,0-0.2c0,0,0,0,0,0c0,0,0-0.1,0-0.1c0,0,0,0,0,0c0,0,0-0.1,0-0.1
			c0,0,0,0,0,0l-4.4-11.3v-37c0-1.1-0.7-2.1-1.6-2.1H6.4c-0.9,0-1.6,0.9-1.6,2.1v37L0.4,50.2c0,0,0,0,0,0c0,0,0,0.1,0,0.1
			c0,0,0,0,0,0c0,0,0,0.1,0,0.1c0,0,0,0,0,0c0,0,0,0.1,0,0.1c0,0,0,0,0,0c0,0,0,0,0,0.1v2.7c0,1.4,0.8,2.5,1.9,2.5h52.2
			c1,0,1.9-1.1,1.9-2.5L56.3,50.6C56.3,50.7,56.3,50.6,56.3,50.6z M6.4,2h43.8v36.2H6.4V2z M6.1,40.3h44.4l3.6,9.4h-18l-0.9-4.3
			c-0.2-0.9-0.8-1.5-1.5-1.5H22.9c-0.7,0-1.3,0.6-1.5,1.5l-0.9,4.3h-18L6.1,40.3z M34.4,49.6H22.2L23,46h10.7L34.4,49.6z M54.7,53.4
			c0,0.2-0.1,0.3-0.2,0.3H2.2c-0.1,0-0.2-0.1-0.2-0.3v-1.6h52.7V53.4z"/>
	</g>
</g>
<g>
	<g>
		<path d="M47.6,21.8c-0.5,0-0.8,0.5-0.8,1.1v10.8h-37V22.9c0-0.6-0.4-1.1-0.8-1.1s-0.8,0.5-0.8,1.1v11.3c0,0.9,0.6,1.7,1.3,1.7
			h37.7c0.7,0,1.3-0.8,1.3-1.7V22.9C48.5,22.3,48.1,21.8,47.6,21.8z"/>
	</g>
</g>
<g>
	<g>
		<path d="M47.2,4.3H9.5C8.8,4.3,8.2,5,8.2,5.9v11.3c0,0.6,0.4,1.1,0.8,1.1s0.8-0.5,0.8-1.1V6.4h37v10.8c0,0.6,0.4,1.1,0.8,1.1
			c0.5,0,0.8-0.5,0.8-1.1V5.9C48.5,5,47.9,4.3,47.2,4.3z"/>
	</g>
</g>
</svg>
