<?xml version="1.0" standalone="no"?>
<!DOCTYPE svg PUBLIC "-//W3C//DTD SVG 20010904//EN"
 "http://www.w3.org/TR/2001/REC-SVG-20010904/DTD/svg10.dtd">
<svg version="1.0" xmlns="http://www.w3.org/2000/svg"
 width="2000.000000pt" height="2000.000000pt" viewBox="0 0 2000.000000 2000.000000"
 preserveAspectRatio="xMidYMid meet">
<metadata>
Created by potrace 1.15, written by Peter Selinger 2001-2017
</metadata>
<g transform="translate(0.000000,2000.000000) scale(0.100000,-0.100000)"
fill="#000000" stroke="none">
<path d="M9982 15182 c-6 -2 -10 -8 -7 -13 7 -11 -75 -263 -86 -267 -5 -2 -7
-7 -4 -12 2 -4 -11 -56 -31 -116 -127 -392 -167 -509 -175 -512 -5 -2 -7 -8
-3 -13 5 -8 -34 -145 -56 -194 -4 -11 -25 -74 -45 -140 -21 -66 -42 -126 -48
-132 -5 -7 -7 -13 -3 -13 3 0 -3 -24 -13 -52 -15 -43 -143 -436 -208 -640 -9
-27 -20 -48 -25 -48 -5 0 -6 -4 -3 -10 8 -13 -15 -90 -27 -90 -5 0 -7 -4 -4
-9 5 -7 -85 -298 -111 -361 -3 -8 -7 -19 -7 -25 -2 -14 -15 -56 -26 -80 -5
-11 -35 -102 -66 -202 -32 -100 -61 -180 -66 -177 -4 3 -5 -1 -3 -9 3 -7 -37
-143 -89 -303 -52 -159 -112 -343 -134 -409 l-38 -120 -2082 -3 c-1145 -1
-2082 -5 -2081 -10 0 -4 112 -88 250 -187 137 -99 249 -183 249 -188 0 -4 4
-6 8 -3 5 3 25 -10 45 -28 21 -19 37 -31 37 -27 1 3 10 -5 20 -18 11 -13 20
-20 20 -16 0 3 14 -4 31 -17 17 -13 51 -36 74 -53 23 -16 55 -40 71 -52 16
-13 72 -53 124 -91 278 -201 404 -292 485 -352 50 -36 136 -99 193 -139 56
-41 102 -77 102 -82 0 -5 7 -9 15 -9 7 0 19 -8 24 -17 6 -10 11 -14 11 -10 0
7 33 -15 85 -56 12 -10 238 -173 341 -247 92 -67 237 -172 319 -233 33 -24
124 -90 203 -147 78 -57 142 -107 142 -113 0 -6 3 -7 6 -4 6 5 95 -52 114 -73
3 -3 22 -16 42 -30 21 -14 38 -31 38 -38 0 -7 4 -11 9 -8 7 4 101 -61 279
-192 18 -14 21 -23 16 -47 -4 -16 -10 -36 -14 -45 -4 -8 -16 -42 -26 -75 -9
-33 -22 -69 -28 -80 -5 -11 -10 -27 -11 -35 -1 -8 -39 -130 -84 -270 -113
-348 -198 -610 -206 -637 -3 -13 -11 -23 -16 -23 -6 0 -7 -4 -4 -10 3 -5 -22
-94 -56 -197 -149 -455 -189 -576 -228 -703 -23 -74 -46 -144 -51 -155 -4 -11
-47 -141 -95 -290 -48 -148 -95 -295 -105 -325 -10 -30 -48 -148 -85 -262 -37
-115 -72 -208 -77 -208 -5 0 -6 -4 -3 -10 8 -13 -15 -90 -27 -90 -5 0 -7 -4
-4 -8 3 -5 -31 -120 -75 -256 -44 -136 -78 -250 -75 -253 4 -4 532 372 611
435 55 43 83 61 88 55 4 -3 7 -2 7 4 0 8 70 61 379 286 25 17 189 137 365 264
177 128 332 241 345 250 13 10 28 17 33 15 4 -1 8 2 8 7 0 4 48 43 108 86 59
43 146 107 193 142 48 35 91 63 98 63 6 0 11 4 11 8 0 5 59 51 131 103 188
135 218 157 315 228 48 35 93 64 100 64 8 0 14 5 14 11 1 12 261 202 273 198
4 -1 7 2 7 7 0 4 19 21 43 37 23 16 47 34 53 39 7 6 53 39 103 75 l91 65 0
418 0 419 -52 -38 c-101 -71 -1003 -727 -1053 -764 -27 -21 -102 -74 -165
-120 -63 -46 -137 -100 -165 -120 -27 -20 -158 -115 -290 -211 -132 -95 -325
-235 -429 -311 -104 -76 -191 -136 -194 -133 -3 2 7 37 21 77 14 40 69 208
122 373 53 165 105 325 115 355 10 30 73 224 140 430 67 206 132 407 145 445
13 39 65 198 116 355 50 157 122 379 160 495 38 115 69 214 69 220 -1 5 -101
82 -223 171 -516 373 -856 620 -922 669 -38 28 -286 208 -550 400 -264 191
-517 375 -563 409 l-83 61 1449 3 1450 2 10 28 c6 15 54 162 107 327 54 165
116 359 140 430 23 72 88 272 144 445 56 173 111 340 121 370 10 30 65 197
121 370 56 173 136 416 178 540 l75 225 3 615 c4 805 2 978 -15 972z"/>
<path d="M9712 12107 c-156 -480 -321 -990 -368 -1134 l-86 -263 -1196 -2
-1196 -3 144 -106 c80 -58 515 -374 968 -703 574 -417 822 -602 818 -612 -5
-13 -290 -889 -612 -1879 -67 -209 -122 -380 -121 -381 1 -1 435 312 964 697
530 384 968 699 973 699 6 0 288 -202 628 -448 339 -247 772 -562 962 -699
190 -138 346 -250 347 -249 1 1 -682 2110 -732 2258 -5 13 213 175 962 720
l968 703 -1197 3 -1197 2 -36 113 c-51 158 -389 1198 -557 1712 -77 237 -143
433 -146 437 -4 3 -134 -386 -290 -865z m748 -1787 l0 -70 -95 0 -95 0 0 70 0
70 95 0 95 0 0 -70z m-429 -1 c69 -33 106 -79 121 -152 24 -114 -26 -221 -132
-281 -51 -29 -64 -31 -167 -35 l-113 -3 0 -119 0 -119 -100 0 -100 0 0 371 0
370 218 -3 c210 -3 219 -4 273 -29z m429 -429 l0 -280 -95 0 -95 0 0 280 0
280 95 0 95 0 0 -280z"/>
<path d="M9740 10100 l0 -113 76 6 c90 7 119 23 135 76 25 85 -20 131 -135
139 l-76 5 0 -113z"/>
</g>
</svg>
