<?xml version="1.0" encoding="utf-8"?>
<!-- Generator: Adobe Illustrator 24.1.1, SVG Export Plug-In . SVG Version: 6.00 Build 0)  -->
<svg version="1.1" id="Слой_1" xmlns="http://www.w3.org/2000/svg" xmlns:xlink="http://www.w3.org/1999/xlink" x="0px" y="0px"
	 viewBox="0 0 56 56" style="enable-background:new 0 0 56 56;" xml:space="preserve">
<g>
	<g>
		<path d="M54.3,20.6c-2.1-1.7-5.2-1.5-6.9,0.6l-4.7,5.5v-16c0-1.3-0.6-2.6-1.5-3.6l-6.2-5.9c-0.9-0.9-2.1-1.4-3.4-1.4H4.9
			C2.2-0.2,0,2.1,0,4.8v46.2c0,2.7,2.2,4.9,4.9,4.9h32.8c2.7,0,4.9-2.2,4.9-4.9v-9c0.2-0.2,12.2-14.4,12.2-14.4
			C56.6,25.4,56.4,22.3,54.3,20.6z M32.8,3.7c6.6,6.2,6.1,5.8,6.2,5.9h-6.2V3.7z M39.4,50.9c0,0.9-0.7,1.6-1.6,1.6H4.9
			c-0.9,0-1.6-0.7-1.6-1.6V4.8c0-0.9,0.7-1.6,1.6-1.6h24.6v8.2c0,0.9,0.7,1.6,1.6,1.6h8.2v17.6c-0.7,0.8-6.4,7.5-7,8.3
			c-0.5,0.6-0.8,1.3-1,2l-1.5,6.4c-0.1,0.6,0.1,1.2,0.5,1.6c0.5,0.4,1.1,0.5,1.7,0.2l6-2.6c0.5-0.2,0.9-0.5,1.2-0.8V50.9z
			 M35.5,40.3l2.5,2.1l-0.6,0.7c-0.2,0.2-0.4,0.3-0.6,0.5l-3,1.3l0.8-3.2c0.1-0.2,0.2-0.5,0.3-0.7L35.5,40.3z M40.1,39.9l-2.5-2.1
			c0.3-0.3,8.5-10.1,9.1-10.7l2.5,2.1L40.1,39.9z M52.4,25.4l-1.1,1.3l-2.5-2.1l1.1-1.3c0.6-0.7,1.6-0.8,2.3-0.2
			C52.9,23.7,52.9,24.7,52.4,25.4z"/>
	</g>
</g>
<g>
	<g>
		<path d="M24.6,9.7H8.2c-0.9,0-1.6,0.7-1.6,1.6c0,0.9,0.7,1.6,1.6,1.6h16.4c0.9,0,1.6-0.7,1.6-1.6C26.3,10.4,25.5,9.7,24.6,9.7z"/>
	</g>
</g>
<g>
	<g>
		<path d="M34.5,19.6H8.2c-0.9,0-1.6,0.7-1.6,1.6c0,0.9,0.7,1.6,1.6,1.6h26.2c0.9,0,1.6-0.7,1.6-1.6C36.1,20.4,35.4,19.6,34.5,19.6z
			"/>
	</g>
</g>
<g>
	<g>
		<path d="M34.5,29.5H8.2c-0.9,0-1.6,0.7-1.6,1.6s0.7,1.6,1.6,1.6h26.2c0.9,0,1.6-0.7,1.6-1.6C36.1,30.2,35.4,29.5,34.5,29.5z"/>
	</g>
</g>
<g>
	<g>
		<path d="M24.6,39.3H8.2c-0.9,0-1.6,0.7-1.6,1.6c0,0.9,0.7,1.6,1.6,1.6h16.4c0.9,0,1.6-0.7,1.6-1.6C26.3,40.1,25.5,39.3,24.6,39.3z
			"/>
	</g>
</g>
</svg>
